<?xml version="1.0" standalone="no"?>
<!DOCTYPE svg PUBLIC "-//W3C//DTD SVG 20010904//EN"
 "http://www.w3.org/TR/2001/REC-SVG-20010904/DTD/svg10.dtd">
<svg version="1.0" xmlns="http://www.w3.org/2000/svg"
 width="108.000000pt" height="108.000000pt" viewBox="0 0 108.000000 108.000000"
 preserveAspectRatio="xMidYMid meet">
<metadata>
Created by potrace 1.11, written by Peter Selinger 2001-2013
</metadata>
<g transform="translate(0.000000,108.000000) scale(0.100000,-0.100000)"
fill="#000000" stroke="none">
<path d="M788 943 l-38 -4 0 -59 c0 -42 4 -59 15 -64 11 -4 15 -22 15 -71 l0
-65 -40 -6 c-29 -5 -40 -11 -40 -24 0 -13 -6 -17 -20 -13 -11 3 -20 12 -20 19
0 10 -13 14 -40 14 -27 0 -40 -4 -40 -14 0 -13 -28 -26 -57 -26 -7 0 -13 9
-13 19 0 18 -10 20 -167 23 -93 1 -207 2 -255 0 l-88 -3 0 -335 0 -334 540 0
540 0 0 335 0 335 -70 0 c-56 0 -70 -3 -70 -15 0 -8 7 -15 15 -15 12 0 15 -14
15 -65 0 -51 -3 -65 -15 -65 -8 0 -15 -7 -15 -15 0 -8 -8 -15 -19 -15 -22 0
-31 26 -31 98 0 39 -4 52 -15 52 -8 0 -17 -14 -21 -35 -3 -20 -12 -35 -20 -35
-10 0 -14 -15 -14 -60 0 -53 -2 -60 -20 -60 -13 0 -20 7 -20 20 0 11 -7 20
-15 20 -19 0 -20 26 -1 33 7 3 16 22 20 41 4 22 13 36 21 36 8 0 15 9 15 20 0
11 7 20 15 20 9 0 15 9 15 21 0 12 8 23 20 26 11 3 20 11 20 18 0 7 9 15 20
18 26 7 26 33 -1 40 -15 4 -20 11 -15 22 3 9 6 23 6 31 0 8 7 14 15 14 9 0 15
9 15 25 0 15 -6 25 -14 25 -8 0 -17 15 -20 34 -6 32 -30 49 -61 44 -5 -1 -27
-3 -47 -5z m62 -53 c0 -5 -7 -10 -15 -10 -8 0 -15 5 -15 10 0 6 7 10 15 10 8
0 15 -4 15 -10z m0 -40 c0 -11 -6 -20 -12 -20 -7 0 -23 -3 -35 -6 -20 -5 -23
-2 -23 20 0 23 4 26 35 26 28 0 35 -4 35 -20z m81 -450 c33 0 39 -3 39 -20 0
-19 -5 -21 -57 -18 -57 3 -58 3 -56 32 3 36 26 55 31 26 3 -16 11 -20 43 -20z
m-111 -54 c0 -9 -22 -15 -79 -19 -86 -5 -112 -14 -90 -28 11 -7 10 -9 -3 -9
-10 0 -18 6 -18 13 0 6 -3 22 -6 35 -6 22 -5 22 95 22 78 0 101 -3 101 -14z
m110 -81 c0 -18 5 -25 20 -25 11 0 20 -7 20 -15 0 -12 -15 -15 -75 -15 -60 0
-75 3 -75 15 0 8 7 15 15 15 8 0 15 8 15 18 0 26 9 32 47 32 29 0 33 -3 33
-25z"/>
</g>
</svg>
